<svg
      xmlns="http://www.w3.org/2000/svg"
      viewBox="0 0 32 32"
      width="32"
      height="32"
    >
      <path
        fill="#FFFFFF"
        d="M30.923 9.276c.4 3.2-.79 6.13-2.901 8.12-1.591 1.5-2.951 3.25-3.622 5.33a11.998 11.998 0 0 1-11.965 8.26C6.322 30.706 1.28 25.666 1 19.555A11.994 11.994 0 0 1 9.264 7.594c2.081-.67 3.832-2.03 5.332-3.62a9.464 9.464 0 0 1 8.123-2.9c4.232.53 7.673 3.97 8.204 8.2Zm-6.333 4.48c1.05-.99 1.551-2.4 1.371-3.86-.25-1.95-1.911-3.61-3.862-3.86-1.601-.17-3.011.46-3.862 1.37-2.331 2.47-4.762 4.09-7.423 4.94-2.981.97-4.962 3.84-4.822 6.98.17 3.51 3.161 6.5 6.673 6.67 3.331.17 6.043-1.94 6.973-4.8.86-2.68 2.481-5.11 4.952-7.44Z"
        class="colorFFF#FFFFFF svgShape"
      ></path>
      <path
        fill="#FFFFFF"
        d="M20.218 11.776c-2.331 2.48-3.932 5.13-4.862 8.04-.59 1.83-2.501 1.68-2.501 1.68-1.181-.05-2.311-1.19-2.361-2.38-.05-1.12.65-2.14 1.711-2.49 2.891-.93 5.532-2.52 8.013-4.85Z"
        class="colorFFFFFF svgShape"
      ></path>
      <path
        fill="#FFFFFF"
        d="M25.96 9.896c.18 1.46-.32 2.87-1.371 3.86-2.471 2.33-4.092 4.76-4.952 7.44-.93 2.86-3.642 4.97-6.973 4.8-3.511-.17-6.503-3.16-6.673-6.67-.14-3.14 1.841-6.01 4.822-6.98 2.661-.85 5.092-2.47 7.423-4.94.85-.91 2.261-1.54 3.862-1.37 1.951.25 3.612 1.91 3.862 3.86Zm-10.605 9.92c.93-2.91 2.531-5.56 4.862-8.04-2.481 2.33-5.122 3.92-8.013 4.85a2.506 2.506 0 0 0-1.711 2.49c.05 1.19 1.181 2.33 2.361 2.38 0 0 1.911.15 2.501-1.68Z"
        class="colorFFFFFF svgShape"
      ></path>
      <g fill="#252525" class="color252525 svgShape">
        <path
          d="M12.973 31.999C9.798 31.999 0 29.589 0 19.602 0 13.366 3.42 8.448 8.953 6.644c1.691-.544 3.297-1.641 4.914-3.355C16.19.83 19.455-.338 22.843.083c4.672.585 8.487 4.399 9.072 9.069.423 3.381-.746 6.652-3.207 8.972-1.715 1.616-2.812 3.222-3.355 4.909-1.745 5.349-6.782 8.965-12.379 8.965Zm8.52-30.001c-2.341 0-4.544.94-6.17 2.664-1.854 1.965-3.737 3.236-5.753 3.885-4.678 1.524-7.792 6.033-7.571 10.963.258 5.616 4.862 10.219 10.482 10.477a10.982 10.982 0 0 0 10.968-7.571c.649-2.013 1.92-3.895 3.885-5.748 1.993-1.878 2.939-4.528 2.596-7.269-.474-3.776-3.558-6.859-7.335-7.332a8.933 8.933 0 0 0-1.102-.069Z"
          fill="#000000"
          class="color000 svgShape"
        ></path>
        <path
          d="M12.616 26.996c-4.01-.194-7.429-3.613-7.623-7.621-.159-3.592 2.107-6.872 5.512-7.981 2.499-.798 4.788-2.326 7.005-4.675 1.157-1.238 2.916-1.869 4.694-1.678 2.41.309 4.442 2.34 4.749 4.728.22 1.786-.392 3.502-1.676 4.714-2.349 2.214-3.882 4.51-4.687 7.019-1.085 3.336-3.974 5.772-7.974 5.493Zm6.353-18.907c-2.459 2.605-5.026 4.308-7.85 5.209-2.548.83-4.248 3.291-4.128 5.984.146 3.005 2.712 5.571 5.722 5.716h.002c2.702.146 5.125-1.512 5.97-4.111.911-2.835 2.617-5.407 5.217-7.859.818-.771 1.206-1.867 1.065-3.01-.191-1.483-1.507-2.8-2.996-2.99-1.644-.105-2.493.516-3.002 1.061Z"
          fill="#000000"
          class="color000 svgShape"
        ></path>
        <path
          d="M12.796 22.495c-1.69-.081-3.23-1.636-3.301-3.336a3.515 3.515 0 0 1 2.396-3.482c2.78-.895 5.278-2.407 7.643-4.629a.999.999 0 0 1 1.413 1.413c-2.232 2.374-3.749 4.88-4.638 7.661-.613 1.9-1.665 2.445-3.513 2.373Zm.128-1.996c.191.009 1.159.01 1.481-.989a20.544 20.544 0 0 1 1.385-3.308 20.528 20.528 0 0 1-3.279 1.377 1.506 1.506 0 0 0-1.018 1.494c.028.679.737 1.397 1.404 1.425h.026Z"
          fill="#000000"
          class="color000 svgShape"
        ></path>
      </g>
    </svg>